<svg xmlns="http://www.w3.org/2000/svg" viewBox="0 0 181.69 67.17"><title>Asset 2</title><g id="Layer_2" data-name="Layer 2"><g id="Layer_1-2" data-name="Layer 1"><path d="M142.51,59.83c-2.36,0-4.09-2-4-5.37h7.84V53.9c0-2.89-1.68-5-4.91-5s-5.94,2.84-5.94,7c0,3.71,2.33,6.28,5.82,6.28a5,5,0,0,0,5.15-4l-.38-.21A4.07,4.07,0,0,1,142.51,59.83Zm-1.3-10.07c1.57,0,2.17,1.54,2.17,3.81h-4.81C138.76,51.35,139.62,49.76,141.21,49.76Z"/><path d="M167.35,60V52.75c0-2.55-1.08-3.88-3.3-3.88a5.6,5.6,0,0,0-4.4,2.43,2.78,2.78,0,0,0-3.13-2.43,5.28,5.28,0,0,0-4.31,2.39l.1-2.39h-.56l-4.3,1.33v.45l1.44.85V60c0,.84-.39,1-1.52,1.06v.79h6.28v-.79c-1.1-.08-1.44-.22-1.44-1.06V51.88a4.39,4.39,0,0,1,2.5-1c1.26,0,1.74.7,1.74,2.08V60c0,.84-.32,1-1.45,1.06v.79h6.21v-.79c-1.1-.08-1.42-.22-1.42-1.06V51.91a4.12,4.12,0,0,1,2.48-1c1.25,0,1.74.7,1.74,2.08V60c0,.84-.32,1-1.43,1.06v.79h6.26v-.79C167.74,61,167.35,60.86,167.35,60Z"/><path d="M84.68,2.82H86v13.6c0,1.32-.56,1.39-2.17,1.58v.85h7.85V18c-1.64-.19-2.17-.26-2.17-1.58V2.82h1.27c1.86,0,2.44,1.1,4,4.69h.77L95.13,2H80.27l-.36,5.56h.77C82.25,3.92,82.83,2.82,84.68,2.82Z"/><path d="M102.56,18.05c-1.11-.07-1.47-.22-1.47-1.06V8.86a4.85,4.85,0,0,1,2.67-1c1.33,0,1.88.7,1.88,2.09v7c0,.84-.36,1-1.47,1.06v.8h6.31v-.8C109.37,18,109,17.83,109,17V9.8c0-2.63-1.21-4-3.47-4a5.72,5.72,0,0,0-4.43,2.36V0h-.53L96.3,1.15v.51l1.45.75V17c0,.84-.39,1-1.5,1.06v.8h6.31Z"/><path d="M116.62,19.09a5.06,5.06,0,0,0,5.15-4l-.39-.22a4.06,4.06,0,0,1-3.58,2c-2.36,0-4.1-2-4-5.37h7.85v-.55c0-2.89-1.69-5-4.91-5s-5.95,2.84-5.95,7C110.79,16.51,113.13,19.09,116.62,19.09ZM116.5,6.74c1.56,0,2.16,1.54,2.16,3.8h-4.81C114,8.33,114.91,6.74,116.5,6.74Z"/><path d="M80.28,39.6v.84h8.16c4.17,0,6.38-1.63,6.38-4.54,0-2.58-2.28-4.12-5.48-4.22,2.28-.26,4.52-1.51,4.52-3.94,0-2.77-2.09-4.19-5.8-4.19H80.28v.84c1.69.19,1.93.34,1.93,1.66V37.94C82.21,39.27,82,39.41,80.28,39.6Zm5.47-15.09H86.9c2.24,0,3.52,1.13,3.52,3.27s-1.13,3.42-3.49,3.42H85.75Zm0,7.75h1.66c2.69,0,3.9,1.45,3.9,3.59,0,2.38-1.16,3.63-3.32,3.63h-.24c-1.45,0-2-.33-2-1.63Z"/><path d="M102.59,39.65c-1.49-.12-2-.26-2-1.25V31.76a4.74,4.74,0,0,1,3.9-1.3h.46v-2.6a1.31,1.31,0,0,0-1.06-.41c-1.42,0-2.14.94-3.3,3.56l.1-3.56h-.56l-4.3,1.32v.46l1.44.84v8.52c0,.84-.39,1-1.52,1.06v.8h6.89Z"/><path d="M111,24.1a2,2,0,1,0-2,1.9A1.89,1.89,0,0,0,111,24.1Z"/><path d="M105.89,39.65v.8h6.36v-.8c-1.14-.07-1.52-.22-1.52-1.06V27.45h-.53L106,28.77v.46l1.45.84v8.52C107.41,39.43,107,39.58,105.89,39.65Z"/><path d="M118.88,38.86c-1.13,0-1.69-.63-1.69-2.1v-8h3.13V27.69h-3.13V24.56h-.72a9.83,9.83,0,0,1-4.11,3.68v.56h1.49V37c0,2.69,1.44,3.73,3.42,3.73a4.23,4.23,0,0,0,3.7-2.07l-.28-.44A2.84,2.84,0,0,1,118.88,38.86Z"/><path d="M124.9,26a1.9,1.9,0,1,0,0-3.8,1.9,1.9,0,1,0,0,3.8Z"/><path d="M128.13,39.65c-1.13-.07-1.52-.22-1.52-1.06V27.45h-.53l-4.23,1.32v.46l1.44.84v8.52c0,.84-.38,1-1.52,1.06v.8h6.36Z"/><path d="M133.81,39.84c-1.86,0-3.08-1.56-3.61-3.66h-.89l.14,3.3a7.43,7.43,0,0,0,4.33,1.21c3,0,4.89-1.5,4.89-4.07,0-2.36-1.52-3.35-4.14-4.26-1.85-.68-2.6-1.21-2.6-2.31a1.74,1.74,0,0,1,1.95-1.76c1.71,0,2.72,1.4,3.1,3.13h.82V28.51a7.24,7.24,0,0,0-3.92-1.06c-2.65,0-4.48,1.42-4.48,3.82,0,2.24,1.33,3.25,3.9,4.14,1.9.68,2.79,1.18,2.79,2.48S135.11,39.84,133.81,39.84Z"/><path d="M147.05,39.65v.8h6.31v-.8c-1.11-.07-1.49-.22-1.49-1.06v-7.2c0-2.62-1.21-3.94-3.47-3.94A5.72,5.72,0,0,0,144,29.81V21.6h-.53l-4.26,1.15v.51l1.45.75V38.59c0,.84-.39,1-1.5,1.06v.8h6.31v-.8c-1.11-.07-1.47-.22-1.47-1.06V30.46a4.85,4.85,0,0,1,2.67-1c1.33,0,1.88.7,1.88,2.09v7C148.52,39.43,148.16,39.58,147.05,39.65Z"/><path d="M95.62,60.14,89.43,44.85H85.68l.74,1.81L81.18,60.14c-.27.65-.75.79-1.43.89v.84h5V61c-1.47-.05-2.07-.31-2.07-1.08a2.68,2.68,0,0,1,.22-.94l1-2.7h6.47L91.48,59a2.64,2.64,0,0,1,.21.94c0,.77-.6,1-2,1.06v.84H97V61C96.39,60.93,95.88,60.79,95.62,60.14ZM84.28,55.28,87.07,48,90,55.28Z"/><path d="M103.69,59.73c-2.43,0-3.87-2-3.87-5.2,0-2.67,1.06-4.74,2.89-4.74,1.35,0,1.75,1.06,1.75,2.33a8.58,8.58,0,0,1-.09,1.18h1.83a1.76,1.76,0,0,0,.91-1.61c0-1.85-1.63-2.82-4-2.82-3.81,0-6.24,3-6.24,7.06,0,3.78,2.39,6.18,5.61,6.18a4.87,4.87,0,0,0,5-3.92l-.41-.24A3.76,3.76,0,0,1,103.69,59.73Z"/><path d="M119.78,60.55c-.63,0-.8-.53-.8-1.35V52.82c0-2.82-1.68-4-4.76-4-2.67,0-4.74,1-4.74,3a1.47,1.47,0,0,0,1.06,1.51l2-.26a6.69,6.69,0,0,1-.19-1.49c0-1.16.46-2,1.61-2s1.71,1,1.71,2.36v2L112,55.37c-1.81.68-3.3,1.52-3.3,3.59a3,3,0,0,0,3.25,3.1A4.77,4.77,0,0,0,115.73,60a2.35,2.35,0,0,0,2.41,2.12,3.51,3.51,0,0,0,2.75-1.27l-.15-.53A2.34,2.34,0,0,1,119.78,60.55Zm-4.12-1.13a2.91,2.91,0,0,1-1.85.77c-1.28,0-1.85-.89-1.85-2.15a2.15,2.15,0,0,1,1.63-2.28l2.07-.85Z"/><path d="M133.4,59.32V43h-.53l-4.26,1.16v.51l1.44.74v4.33a3.81,3.81,0,0,0-2.6-.84c-3.44,0-6.13,2.62-6.13,7.17,0,3.66,2,6,4.86,6a4.58,4.58,0,0,0,3.87-2.24L130,62.11h.62l4.39-.86v-.73l-.61-.05C133.45,60.4,133.4,60.14,133.4,59.32Zm-3.35,0a2.92,2.92,0,0,1-2,.77c-2.19,0-3.4-2.19-3.4-5.13s1.18-5,3.21-5c1.44,0,2.23,1.1,2.23,3Z"/><path d="M177.55,49.11v.8c1.25.14,1.63.26,1.63.82a1.72,1.72,0,0,1-.17.67l-2.69,7.13-2.89-7.13a2.05,2.05,0,0,1-.15-.67c0-.56.41-.68,1.64-.82v-.8h-6.54v.8c.86.24,1,.41,1.22.91l5.18,11.51-.41,1a2.36,2.36,0,0,1-2.6,1.69,6.32,6.32,0,0,1-1.64-.22v1.23A1.91,1.91,0,0,0,172,67.17c1.56,0,2.38-1.06,3.17-3l5.3-13.34c.22-.5.38-.67,1.23-.91v-.8Z"/><polygon points="36.88 1.95 56.34 61.87 69.41 61.87 49.95 1.95 36.88 1.95"/><path d="M31.84,12.76A15.77,15.77,0,0,0,26.45,2H12.19A15.55,15.55,0,0,1,19,14.51C19,23.55,10.49,31,0,31V32.8c10.49,0,19,7.47,19,16.51a15.55,15.55,0,0,1-6.81,12.56H26.45a15.77,15.77,0,0,0,5.39-10.81c.49-9.49-8.4-17.81-20.17-19.15C23.44,30.57,32.33,22.26,31.84,12.76Z"/></g></g></svg>